<?xml version="1.0" encoding="UTF-8" standalone="no"?>
<!-- Generator: Adobe Illustrator 15.1.0, SVG Export Plug-In . SVG Version: 6.00 Build 0)  -->

<svg
   xmlns:dc="http://purl.org/dc/elements/1.1/"
   xmlns:cc="http://creativecommons.org/ns#"
   xmlns:rdf="http://www.w3.org/1999/02/22-rdf-syntax-ns#"
   xmlns:svg="http://www.w3.org/2000/svg"
   xmlns="http://www.w3.org/2000/svg"
   xmlns:sodipodi="http://sodipodi.sourceforge.net/DTD/sodipodi-0.dtd"
   xmlns:inkscape="http://www.inkscape.org/namespaces/inkscape"
   version="1.1"
   id="Ebene_1"
   x="0px"
   y="0px"
   width="160.16299"
   height="11.052"
   viewBox="0 0 160.16299 11.052"
   enable-background="new 0 0 800 600"
   xml:space="preserve"
   inkscape:version="0.48.4 r9939"
   sodipodi:docname="rub_schriftmarke.svg"><metadata
   id="metadata3089"><rdf:RDF><cc:Work
       rdf:about=""><dc:format>image/svg+xml</dc:format><dc:type
         rdf:resource="http://purl.org/dc/dcmitype/StillImage" /></cc:Work></rdf:RDF></metadata><defs
   id="defs3087" /><sodipodi:namedview
   pagecolor="#ffffff"
   bordercolor="#666666"
   borderopacity="1"
   objecttolerance="10"
   gridtolerance="10"
   guidetolerance="10"
   inkscape:pageopacity="0"
   inkscape:pageshadow="2"
   inkscape:window-width="640"
   inkscape:window-height="480"
   id="namedview3085"
   showgrid="false"
   fit-margin-top="0"
   fit-margin-left="0"
   fit-margin-right="0"
   fit-margin-bottom="0"
   inkscape:zoom="3.337544"
   inkscape:cx="77.472503"
   inkscape:cy="-13.945667"
   inkscape:window-x="0"
   inkscape:window-y="0"
   inkscape:window-maximized="0"
   inkscape:current-layer="Ebene_1" />
<g
   id="g3039"
   transform="translate(-184.907,-191.669)">
	<path
   d="m 184.907,202.565 v -8.556 h 3.384 c 0.84,0 1.534,0.236 2.082,0.708 0.548,0.472 0.822,1.132 0.822,1.98 0,0.544 -0.144,1.046 -0.432,1.506 -0.288,0.46 -0.708,0.786 -1.26,0.978 l 2.124,3.384 h -1.74 l -2.004,-3.204 h -1.38 v 3.204 h -1.596 z m 1.596,-4.547 h 1.596 c 0.472,0 0.846,-0.114 1.122,-0.342 0.276,-0.228 0.414,-0.558 0.414,-0.99 0,-0.888 -0.52,-1.332 -1.56,-1.332 h -1.572 v 2.664 z"
   id="path3041"
   inkscape:connector-curvature="0"
   style="fill:#003560" />
	<path
   d="m 196.007,202.697 c -1.024,0 -1.838,-0.264 -2.442,-0.792 -0.604,-0.528 -0.906,-1.292 -0.906,-2.292 v -5.604 h 1.596 v 5.412 c 0,0.56 0.144,1.006 0.432,1.338 0.288,0.332 0.728,0.498 1.32,0.498 1.168,0 1.752,-0.612 1.752,-1.836 v -5.412 h 1.596 v 5.484 c 0,1.008 -0.304,1.794 -0.912,2.358 -0.608,0.564 -1.42,0.846 -2.436,0.846 z"
   id="path3043"
   inkscape:connector-curvature="0"
   style="fill:#003560" />
	<path
   d="m 201.023,202.565 v -8.556 h 1.596 v 3.492 h 3.42 v -3.492 h 1.596 v 8.556 h -1.596 v -3.66 h -3.42 v 3.66 h -1.596 z"
   id="path3045"
   inkscape:connector-curvature="0"
   style="fill:#003560" />
	<path
   d="m 209.363,202.565 v -8.556 h 3.384 c 0.84,0 1.534,0.236 2.082,0.708 0.548,0.472 0.822,1.132 0.822,1.98 0,0.544 -0.144,1.046 -0.432,1.506 -0.288,0.46 -0.708,0.786 -1.26,0.978 l 2.124,3.384 h -1.74 l -2.004,-3.204 h -1.38 v 3.204 h -1.596 z m 1.596,-4.547 h 1.596 c 0.472,0 0.846,-0.114 1.122,-0.342 0.276,-0.228 0.414,-0.558 0.414,-0.99 0,-0.888 -0.52,-1.332 -1.56,-1.332 h -1.572 v 2.664 z"
   id="path3047"
   inkscape:connector-curvature="0"
   style="fill:#003560" />
	<path
   d="m 216.755,199.625 v -1.248 h 3.468 v 1.248 h -3.468 z"
   id="path3049"
   inkscape:connector-curvature="0"
   style="fill:#003560" />
	<path
   d="m 224.819,202.697 c -1.024,0 -1.838,-0.264 -2.442,-0.792 -0.604,-0.528 -0.906,-1.292 -0.906,-2.292 v -5.604 h 1.596 v 5.412 c 0,0.56 0.144,1.006 0.432,1.338 0.288,0.332 0.728,0.498 1.32,0.498 1.168,0 1.752,-0.612 1.752,-1.836 v -5.412 h 1.596 v 5.484 c 0,1.008 -0.304,1.794 -0.912,2.358 -0.608,0.564 -1.42,0.846 -2.436,0.846 z"
   id="path3051"
   inkscape:connector-curvature="0"
   style="fill:#003560" />
	<path
   d="m 229.834,202.565 v -8.556 h 1.548 l 3.72,5.832 h 0.024 v -5.832 h 1.536 v 8.556 h -1.56 l -3.708,-5.844 h -0.024 v 5.844 h -1.536 z"
   id="path3053"
   inkscape:connector-curvature="0"
   style="fill:#003560" />
	<path
   d="m 238.39,202.565 v -8.556 h 1.596 v 8.556 h -1.596 z"
   id="path3055"
   inkscape:connector-curvature="0"
   style="fill:#003560" />
	<path
   d="m 243.659,202.602 -2.808,-8.592 h 1.728 l 1.932,6.3 h 0.024 l 1.932,-6.3 h 1.584 l -2.832,8.592 h -1.56 z"
   id="path3057"
   inkscape:connector-curvature="0"
   style="fill:#003560" />
	<path
   d="m 248.914,202.565 v -8.556 h 5.94 v 1.404 h -4.344 v 2.088 h 3.852 v 1.404 h -3.852 v 2.256 h 4.392 v 1.404 h -5.988 z"
   id="path3059"
   inkscape:connector-curvature="0"
   style="fill:#003560" />
	<path
   d="m 256.414,202.565 v -8.556 h 3.384 c 0.84,0 1.534,0.236 2.082,0.708 0.548,0.472 0.822,1.132 0.822,1.98 0,0.544 -0.144,1.046 -0.432,1.506 -0.288,0.46 -0.708,0.786 -1.26,0.978 l 2.124,3.384 h -1.74 l -2.004,-3.204 h -1.38 v 3.204 h -1.596 z m 1.596,-4.547 h 1.596 c 0.472,0 0.846,-0.114 1.122,-0.342 0.276,-0.228 0.414,-0.558 0.414,-0.99 0,-0.888 -0.52,-1.332 -1.56,-1.332 h -1.572 v 2.664 z"
   id="path3061"
   inkscape:connector-curvature="0"
   style="fill:#003560" />
	<path
   d="m 267.083,202.697 c -0.833,0 -1.563,-0.178 -2.19,-0.534 -0.627,-0.356 -1.05,-0.882 -1.266,-1.578 l 1.44,-0.564 c 0.16,0.408 0.422,0.726 0.786,0.954 0.364,0.228 0.79,0.342 1.278,0.342 0.472,0 0.87,-0.094 1.194,-0.282 0.324,-0.188 0.486,-0.47 0.486,-0.846 0,-0.296 -0.102,-0.528 -0.306,-0.696 -0.204,-0.168 -0.494,-0.308 -0.87,-0.42 l -1.44,-0.348 c -0.656,-0.168 -1.162,-0.422 -1.518,-0.762 -0.356,-0.34 -0.534,-0.858 -0.534,-1.554 0,-0.776 0.294,-1.394 0.882,-1.854 0.588,-0.46 1.314,-0.69 2.178,-0.69 1.504,0 2.508,0.584 3.012,1.752 l -1.308,0.576 c -0.336,-0.656 -0.948,-0.984 -1.836,-0.984 -0.384,0 -0.708,0.09 -0.972,0.27 -0.264,0.18 -0.396,0.45 -0.396,0.81 0,0.48 0.416,0.832 1.248,1.056 l 1.464,0.36 c 1.304,0.304 1.956,1.096 1.956,2.376 0,0.776 -0.31,1.406 -0.93,1.89 -0.621,0.485 -1.407,0.726 -2.358,0.726 z"
   id="path3063"
   inkscape:connector-curvature="0"
   style="fill:#003560" />
	<path
   d="m 271.738,202.565 v -8.556 h 1.596 v 8.556 h -1.596 z"
   id="path3065"
   inkscape:connector-curvature="0"
   style="fill:#003560" />
	<path
   d="m 276.982,202.565 v -7.188 h -2.46 v -1.368 h 6.504 v 1.368 h -2.46 v 7.188 h -1.584 z"
   id="path3067"
   inkscape:connector-curvature="0"
   style="fill:#003560" />
	<path
   d="m 280.426,202.565 3.18,-8.568 h 1.464 l 3.156,8.568 h -1.692 l -0.624,-1.824 h -3.264 l -0.648,1.824 h -1.572 z m 1.98,-9.324 v -1.572 h 1.428 v 1.572 h -1.428 z m 0.684,6.133 h 2.364 l -1.164,-3.432 h -0.024 l -1.176,3.432 z m 1.716,-6.133 v -1.572 h 1.428 v 1.572 h -1.428 z"
   id="path3069"
   inkscape:connector-curvature="0"
   style="fill:#003560" />
	<path
   d="m 290.182,202.565 v -7.188 h -2.46 v -1.368 h 6.504 v 1.368 h -2.46 v 7.188 h -1.584 z"
   id="path3071"
   inkscape:connector-curvature="0"
   style="fill:#003560" />
	<path
   d="m 298.522,202.565 v -8.568 h 3.156 c 0.736,0 1.318,0.18 1.746,0.54 0.428,0.36 0.642,0.88 0.642,1.56 0,0.48 -0.142,0.904 -0.426,1.272 -0.284,0.368 -0.67,0.612 -1.158,0.732 v 0.012 c 0.584,0.088 1.036,0.326 1.356,0.714 0.32,0.388 0.48,0.846 0.48,1.374 0,0.76 -0.252,1.344 -0.756,1.752 -0.504,0.408 -1.112,0.612 -1.824,0.612 h -3.216 z m 0.756,-4.715 h 2.112 c 0.544,0 1.002,-0.138 1.374,-0.414 0.372,-0.276 0.558,-0.682 0.558,-1.218 0,-0.528 -0.168,-0.922 -0.504,-1.182 -0.336,-0.26 -0.776,-0.39 -1.32,-0.39 h -2.22 v 3.204 z m 0,4.067 h 2.28 c 0.592,0 1.072,-0.146 1.44,-0.438 0.368,-0.292 0.552,-0.726 0.552,-1.302 0,-0.56 -0.188,-0.982 -0.564,-1.266 -0.376,-0.284 -0.86,-0.426 -1.452,-0.426 h -2.256 v 3.432 z"
   id="path3073"
   inkscape:connector-curvature="0"
   style="fill:#003560" />
	<path
   d="m 308.902,202.721 c -0.928,0 -1.696,-0.248 -2.304,-0.744 -0.608,-0.496 -0.912,-1.192 -0.912,-2.088 v -2.976 c 0,-0.936 0.302,-1.682 0.906,-2.238 0.604,-0.556 1.366,-0.834 2.286,-0.834 0.936,0 1.704,0.258 2.304,0.774 0.6,0.516 0.9,1.226 0.9,2.13 v 2.904 c 0,0.936 -0.3,1.682 -0.9,2.238 -0.6,0.556 -1.36,0.834 -2.28,0.834 z m 0,-0.672 c 0.704,0 1.284,-0.21 1.74,-0.63 0.456,-0.42 0.684,-0.986 0.684,-1.698 v -2.988 c 0,-0.688 -0.224,-1.228 -0.672,-1.62 -0.448,-0.392 -1.052,-0.588 -1.812,-0.588 -0.704,0 -1.28,0.218 -1.728,0.654 -0.448,0.437 -0.672,1.019 -0.672,1.746 v 2.844 c 0,0.696 0.226,1.25 0.678,1.662 0.452,0.413 1.046,0.618 1.782,0.618 z"
   id="path3075"
   inkscape:connector-curvature="0"
   style="fill:#003560" />
	<path
   d="m 316.834,202.721 c -0.944,0 -1.716,-0.248 -2.316,-0.744 -0.6,-0.496 -0.9,-1.192 -0.9,-2.088 v -3.06 c 0,-0.872 0.3,-1.588 0.9,-2.148 0.6,-0.56 1.364,-0.84 2.292,-0.84 0.864,0 1.578,0.232 2.142,0.696 0.564,0.464 0.846,1.06 0.846,1.788 v 0.48 h -0.732 v -0.36 c 0,-0.584 -0.206,-1.05 -0.618,-1.398 -0.412,-0.348 -0.97,-0.522 -1.674,-0.522 -0.704,0 -1.28,0.212 -1.728,0.636 -0.448,0.424 -0.672,0.984 -0.672,1.68 v 2.928 c 0,0.688 0.226,1.24 0.678,1.656 0.452,0.416 1.046,0.624 1.782,0.624 0.696,0 1.242,-0.174 1.638,-0.522 0.396,-0.348 0.594,-0.818 0.594,-1.41 v -0.204 h 0.732 v 0.336 c 0,0.752 -0.276,1.352 -0.828,1.8 -0.552,0.449 -1.264,0.672 -2.136,0.672 z"
   id="path3077"
   inkscape:connector-curvature="0"
   style="fill:#003560" />
	<path
   d="m 321.406,202.565 v -8.556 h 0.756 v 3.792 h 4.644 v -3.792 h 0.756 v 8.556 h -0.756 v -4.104 h -4.644 v 4.104 h -0.756 z"
   id="path3079"
   inkscape:connector-curvature="0"
   style="fill:#003560" />
	<path
   d="m 332.53,202.709 c -0.856,0 -1.584,-0.24 -2.184,-0.72 -0.6,-0.48 -0.9,-1.2 -0.9,-2.16 v -5.82 h 0.756 v 5.652 c 0,0.8 0.22,1.396 0.66,1.788 0.44,0.392 1.008,0.588 1.704,0.588 0.736,0 1.316,-0.204 1.74,-0.612 0.424,-0.408 0.624,-0.976 0.6,-1.704 v -5.712 h 0.744 v 5.772 c 0.008,0.904 -0.272,1.618 -0.84,2.142 -0.568,0.524 -1.328,0.786 -2.28,0.786 z"
   id="path3081"
   inkscape:connector-curvature="0"
   style="fill:#003560" />
	<path
   d="m 337.534,202.565 v -8.556 h 0.936 l 2.844,5.22 h 0.012 l 2.784,-5.22 h 0.96 v 8.556 h -0.744 v -7.248 h -0.024 l -2.7,4.944 h -0.6 l -2.7,-4.932 h -0.036 v 7.236 h -0.732 z"
   id="path3083"
   inkscape:connector-curvature="0"
   style="fill:#003560" />
</g>
</svg>